<svg width="202" height="202" viewBox="0 0 202 202" fill="none" xmlns="http://www.w3.org/2000/svg">
<g clip-path="url(#clip0_16:583)">
<path d="M75.7754 69.4375C75.7754 74.46 73.7802 79.2769 70.2287 82.8283C66.6773 86.3798 61.8604 88.375 56.8379 88.375C51.8154 88.375 46.9985 86.3798 43.4471 82.8283C39.8956 79.2769 37.9004 74.46 37.9004 69.4375C37.9004 64.415 39.8956 59.5981 43.4471 56.0467C46.9985 52.4952 51.8154 50.5 56.8379 50.5C61.8604 50.5 66.6773 52.4952 70.2287 56.0467C73.7802 59.5981 75.7754 64.415 75.7754 69.4375Z" fill="#E14444"/>
<path d="M25.2754 12.625C18.5787 12.625 12.1562 15.2853 7.42094 20.0206C2.68565 24.7558 0.0253906 31.1783 0.0253906 37.875V164.125C0.0253906 170.822 2.68565 177.244 7.42094 181.979C12.1562 186.715 18.5787 189.375 25.2754 189.375H176.775C183.472 189.375 189.895 186.715 194.63 181.979C199.365 177.244 202.025 170.822 202.025 164.125V37.875C202.025 31.1783 199.365 24.7558 194.63 20.0206C189.895 15.2853 183.472 12.625 176.775 12.625H25.2754ZM176.775 25.25C180.124 25.25 183.335 26.5801 185.703 28.9478C188.07 31.3154 189.4 34.5266 189.4 37.875V119.938L141.716 95.3566C140.532 94.7635 139.191 94.5578 137.884 94.7685C136.577 94.9792 135.369 95.5957 134.431 96.5307L87.5924 143.37L54.0099 120.998C52.7974 120.191 51.343 119.828 49.8934 119.97C48.4437 120.113 47.088 120.753 46.0561 121.781L12.6504 151.5V37.875C12.6504 34.5266 13.9805 31.3154 16.3482 28.9478C18.7158 26.5801 21.927 25.25 25.2754 25.25H176.775Z" fill="#E14444"/>
</g>
<defs>
<clipPath id="clip0_16:583">
<rect width="202" height="202" fill="white"/>
</clipPath>
</defs>
</svg>
