<svg width="117" height="75" viewBox="0 0 117 75" fill="none" xmlns="http://www.w3.org/2000/svg">
<g filter="url(#filter0_d)">
<path d="M57 19.9V62H76.6V19.9H107.8V4.99999H15.8L28.8 19.9H57Z" fill="#5047AE"/>
<path d="M57 19.9H62V14.9H57V19.9ZM57 62H52V67H57V62ZM76.6 62V67H81.6V62H76.6ZM76.6 19.9V14.9H71.6V19.9H76.6ZM107.8 19.9V24.9H112.8V19.9H107.8ZM107.8 4.99999H112.8V-5.72205e-06H107.8V4.99999ZM15.8 4.99999V-5.72205e-06H4.80202L12.0324 8.28714L15.8 4.99999ZM28.8 19.9L25.0324 23.1871L26.5269 24.9H28.8V19.9ZM52 19.9V62H62V19.9H52ZM57 67H76.6V57H57V67ZM81.6 62V19.9H71.6V62H81.6ZM76.6 24.9H107.8V14.9H76.6V24.9ZM112.8 19.9V4.99999H102.8V19.9H112.8ZM107.8 -5.72205e-06H15.8V9.99999H107.8V-5.72205e-06ZM12.0324 8.28714L25.0324 23.1871L32.5676 16.6128L19.5676 1.71284L12.0324 8.28714ZM28.8 24.9H57V14.9H28.8V24.9Z" fill="#429FFD"/>
</g>
<defs>
<filter id="filter0_d" x="0.802002" y="0" width="115.998" height="75" filterUnits="userSpaceOnUse" color-interpolation-filters="sRGB">
<feFlood flood-opacity="0" result="BackgroundImageFix"/>
<feColorMatrix in="SourceAlpha" type="matrix" values="0 0 0 0 0 0 0 0 0 0 0 0 0 0 0 0 0 0 127 0" result="hardAlpha"/>
<feOffset dy="4"/>
<feGaussianBlur stdDeviation="2"/>
<feComposite in2="hardAlpha" operator="out"/>
<feColorMatrix type="matrix" values="0 0 0 0 1 0 0 0 0 1 0 0 0 0 1 0 0 0 1 0"/>
<feBlend mode="normal" in2="BackgroundImageFix" result="effect1_dropShadow"/>
<feBlend mode="normal" in="SourceGraphic" in2="effect1_dropShadow" result="shape"/>
</filter>
</defs>
</svg>
