<svg width="488" height="382" viewBox="0 0 488 382" fill="none" xmlns="http://www.w3.org/2000/svg">
<g id="TPL Logo - Black Background">
<g id="TPL Name">
<g id="Rectangle 1" filter="url(#filter0_d)">
<rect x="4" y="165.879" width="480" height="168.121" rx="35" fill="#5B4DBD"/>
<rect x="4.5" y="166.379" width="479" height="167.121" rx="34.5" stroke="black"/>
</g>
<path id="TPL" d="M162.062 207.938H108.344V318H83.9688V207.938H30.1562V183.562H162.062V207.938ZM313.469 239.812C313.469 245.375 312.781 250.344 311.406 254.719C310.031 259.094 308.156 262.969 305.781 266.344C303.469 269.656 300.781 272.5 297.719 274.875C294.656 277.25 291.438 279.188 288.062 280.688C284.75 282.188 281.375 283.281 277.938 283.969C274.562 284.656 271.375 285 268.375 285H213.25V260.625H268.375C271.5 260.375 274.312 259.75 276.812 258.75C279.375 257.688 281.562 256.281 283.375 254.531C285.188 252.781 286.594 250.688 287.594 248.25C288.594 245.75 289.094 242.938 289.094 239.812V228.75C288.781 225.688 288.125 222.875 287.125 220.312C286.125 217.75 284.75 215.562 283 213.75C281.312 211.938 279.25 210.531 276.812 209.531C274.375 208.469 271.562 207.938 268.375 207.938H213.438C210.188 207.938 207.719 208.781 206.031 210.469C204.344 212.156 203.5 214.594 203.5 217.781V318H179.125V217.781C179.125 211.531 180.25 206.219 182.5 201.844C184.812 197.469 187.656 193.938 191.031 191.25C194.469 188.562 198.188 186.625 202.188 185.438C206.188 184.188 209.875 183.562 213.25 183.562H268.375C273.875 183.562 278.812 184.281 283.188 185.719C287.562 187.094 291.406 188.969 294.719 191.344C298.094 193.656 300.938 196.344 303.25 199.406C305.625 202.469 307.562 205.688 309.062 209.062C310.625 212.375 311.75 215.75 312.438 219.188C313.125 222.562 313.469 225.75 313.469 228.75V239.812ZM457.844 318H346.656C344.906 318 343.281 317.688 341.781 317.062C340.281 316.438 338.969 315.594 337.844 314.531C336.781 313.406 335.938 312.094 335.312 310.594C334.688 309.094 334.375 307.469 334.375 305.719V183.562H358.75V293.625H457.844V318Z" fill="black"/>
</g>
<g id="TPL Icon">
<path id="Polygon 1" d="M227.385 0L279.077 15.6913L123.385 157.473L227.385 0Z" fill="#5B4DBD"/>
<path id="Polygon 2" d="M312.923 26.3389L365.231 42.0302L141.846 156.913L312.923 26.3389Z" fill="#5B4DBD"/>
<path id="Polygon 3" d="M330.769 79.5772V109.839L175.248 158.314L330.769 79.5772Z" fill="#5B4DBD"/>
</g>
<path id="TPL Tagline" d="M33.9344 347.09H38.1531V373H33.9344V347.09ZM41.3875 347.09C42.4891 347.09 43.5789 347.266 44.657 347.617C45.7352 347.969 46.6961 348.496 47.5399 349.199C48.407 349.902 49.0984 350.758 49.6141 351.766C50.1531 352.75 50.4227 353.863 50.4227 355.105C50.4227 356.418 50.2 357.613 49.7547 358.691C49.3094 359.746 48.6883 360.637 47.8914 361.363C47.0945 362.09 46.1336 362.652 45.0086 363.051C43.8836 363.449 42.6414 363.648 41.282 363.648H39.5945V360.555H42.0203C42.5359 360.555 43.0399 360.473 43.532 360.309C44.0477 360.121 44.5164 359.828 44.9383 359.43C45.3602 359.031 45.7 358.48 45.9578 357.777C46.2156 357.051 46.3445 356.16 46.3445 355.105C46.3445 354.684 46.2859 354.203 46.1688 353.664C46.0516 353.102 45.8055 352.574 45.4305 352.082C45.0789 351.566 44.575 351.145 43.9188 350.816C43.2625 350.465 42.3953 350.289 41.3172 350.289H39.5945V347.09H41.3875ZM81.2069 366.953C81.2069 367.75 81.3124 368.383 81.5233 368.852C81.7342 369.297 82.0272 369.637 82.4022 369.871C82.7772 370.082 83.1991 370.223 83.6678 370.293C84.16 370.363 84.6874 370.398 85.2499 370.398V373C84.9452 373.047 84.6288 373.082 84.3006 373.105C84.0428 373.129 83.7381 373.141 83.3866 373.141C83.035 373.164 82.6834 373.176 82.3319 373.176C81.9803 373.176 81.6288 373.164 81.2772 373.141C80.9256 373.117 80.6092 373.082 80.328 373.035C79.5311 372.871 78.91 372.52 78.4647 371.98C78.0194 371.441 77.6795 370.844 77.4452 370.188C77.2108 369.508 77.0584 368.852 76.9881 368.219C76.9413 367.586 76.9178 367.094 76.9178 366.742V366.32V345.684H81.2069V366.953ZM115.155 367.023C115.155 368.078 115.366 368.863 115.788 369.379C116.233 369.895 116.866 370.199 117.686 370.293V373.141C117.593 373.164 117.44 373.176 117.229 373.176C116.433 373.176 115.659 373.07 114.909 372.859C114.183 372.648 113.538 372.309 112.975 371.84C112.413 371.371 111.968 370.75 111.64 369.977C111.335 369.203 111.183 368.254 111.183 367.129C111.183 366.051 111.405 365.125 111.85 364.352C112.319 363.555 112.905 362.91 113.608 362.418C114.335 361.902 115.155 361.527 116.069 361.293C116.983 361.035 117.909 360.906 118.847 360.906H120.393V363.402H119.62C119.151 363.402 118.659 363.449 118.143 363.543C117.628 363.637 117.147 363.812 116.702 364.07C116.257 364.328 115.882 364.703 115.577 365.195C115.296 365.664 115.155 366.273 115.155 367.023ZM126.089 367.129C126.089 367.316 126.1 367.598 126.124 367.973C126.147 368.324 126.194 368.688 126.265 369.062C126.335 369.438 126.44 369.777 126.581 370.082C126.745 370.387 126.956 370.586 127.214 370.68L126.089 373.035C125.784 373.035 125.456 372.965 125.104 372.824C124.776 372.684 124.448 372.484 124.12 372.227C123.815 371.969 123.546 371.688 123.311 371.383C123.1 371.055 122.936 370.703 122.819 370.328C122.585 370.914 122.116 371.441 121.413 371.91C120.733 372.355 119.972 372.684 119.128 372.895V370.223C119.69 370.105 120.194 369.883 120.64 369.555C121.108 369.203 121.507 368.793 121.835 368.324V360.906C121.835 359.758 121.776 358.844 121.659 358.164C121.542 357.484 121.343 356.992 121.061 356.688C120.78 356.359 120.429 356.16 120.007 356.09C119.608 355.996 119.128 355.949 118.565 355.949C118.05 355.949 117.558 356.02 117.089 356.16C116.643 356.277 116.222 356.43 115.823 356.617C115.448 356.781 115.108 356.969 114.804 357.18C114.522 357.391 114.311 357.555 114.171 357.672L112.589 355.246C112.823 354.988 113.175 354.73 113.643 354.473C114.112 354.191 114.651 353.945 115.261 353.734C115.87 353.523 116.526 353.359 117.229 353.242C117.956 353.102 118.706 353.031 119.479 353.031C120.183 353.031 120.862 353.102 121.518 353.242C122.198 353.383 122.808 353.617 123.347 353.945C123.909 354.273 124.39 354.719 124.788 355.281C125.21 355.82 125.503 356.5 125.667 357.32C125.831 358.141 125.936 358.973 125.983 359.816C126.054 360.637 126.089 361.457 126.089 362.277V366.848V367.129ZM173.889 353.172C172.6 356.617 171.451 359.676 170.443 362.348C169.435 364.996 168.557 367.328 167.807 369.344C167.057 371.336 166.389 373.023 165.803 374.406C165.24 375.789 164.713 376.938 164.221 377.852C163.752 378.789 163.307 379.516 162.885 380.031C162.463 380.57 162.029 380.98 161.584 381.262C161.139 381.543 160.646 381.707 160.107 381.754C159.592 381.824 158.994 381.859 158.314 381.859C158.103 381.859 157.857 381.824 157.576 381.754C157.295 381.707 157.014 381.637 156.732 381.543C156.475 381.473 156.24 381.391 156.029 381.297C155.818 381.227 155.678 381.18 155.607 381.156C155.701 380.734 155.795 380.336 155.889 379.961C155.959 379.633 156.029 379.316 156.1 379.012C156.193 378.73 156.264 378.531 156.31 378.414C156.498 378.414 156.779 378.473 157.154 378.59C157.553 378.707 157.846 378.766 158.033 378.766C158.408 378.766 158.736 378.742 159.018 378.695C159.322 378.672 159.592 378.566 159.826 378.379C160.06 378.215 160.283 377.957 160.494 377.605C160.705 377.277 160.939 376.797 161.197 376.164L162.533 373L169.6 353.172H173.889ZM161.795 371.137L154.412 353.172H158.666L163.728 366.496L163.236 367.691L161.795 371.137ZM237.602 366.988C237.602 367.785 237.707 368.406 237.918 368.852C238.129 369.297 238.422 369.637 238.797 369.871C239.195 370.105 239.629 370.258 240.098 370.328C240.59 370.375 241.105 370.398 241.645 370.398V373C241.34 373.047 241.035 373.082 240.73 373.105C240.473 373.129 240.156 373.141 239.781 373.141C239.43 373.164 239.078 373.176 238.727 373.176C238.375 373.176 238.012 373.164 237.637 373.141C237.285 373.117 236.98 373.082 236.723 373.035C235.926 372.895 235.305 372.555 234.859 372.016C234.414 371.453 234.074 370.844 233.84 370.188C233.629 369.508 233.488 368.852 233.418 368.219C233.371 367.586 233.348 367.094 233.348 366.742V356.055H230.746V353.172H233.348V347.547H237.602V353.172H240.766V356.055H237.602V366.988ZM277.913 353.066C279.202 353.137 280.374 353.453 281.429 354.016C282.483 354.555 283.362 355.281 284.065 356.195C284.792 357.086 285.355 358.129 285.753 359.324C286.151 360.52 286.351 361.797 286.351 363.156C286.351 364.516 286.14 365.793 285.718 366.988C285.319 368.16 284.757 369.191 284.03 370.082C283.304 370.949 282.413 371.652 281.358 372.191C280.304 372.73 279.155 373.047 277.913 373.141V369.766C279.085 369.508 280.034 368.77 280.761 367.551C281.511 366.332 281.886 364.867 281.886 363.156C281.886 362.289 281.792 361.48 281.605 360.73C281.44 359.957 281.183 359.266 280.831 358.656C280.48 358.047 280.058 357.543 279.565 357.145C279.073 356.746 278.523 356.488 277.913 356.371V353.066ZM268.105 363.086C268.105 361.727 268.304 360.461 268.702 359.289C269.101 358.117 269.663 357.098 270.39 356.23C271.14 355.34 272.03 354.625 273.062 354.086C274.093 353.547 275.23 353.219 276.472 353.102V356.371C275.3 356.629 274.362 357.367 273.659 358.586C272.956 359.805 272.605 361.27 272.605 362.98C272.605 363.848 272.687 364.668 272.851 365.441C273.038 366.215 273.296 366.906 273.624 367.516C273.952 368.125 274.351 368.629 274.819 369.027C275.312 369.426 275.862 369.672 276.472 369.766V373.141C275.183 373.047 274.023 372.73 272.991 372.191C271.96 371.629 271.081 370.902 270.355 370.012C269.628 369.121 269.065 368.078 268.667 366.883C268.292 365.688 268.105 364.422 268.105 363.086ZM354.318 369.449L359.239 347.09H360.892V356.477L357.06 373.141H351.54L344.966 347.09H349.747L354.318 369.449ZM373.548 347.09H378.329L371.333 373.141H365.849L362.333 357.145V347.09H364.021L368.591 369.449L373.548 347.09ZM410.063 373H405.774V353.172H410.063V373ZM410.449 346.844C410.449 347.547 410.203 348.145 409.711 348.637C409.219 349.105 408.621 349.34 407.918 349.34C407.215 349.34 406.617 349.094 406.125 348.602C405.656 348.109 405.422 347.523 405.422 346.844C405.422 346.141 405.668 345.543 406.16 345.051C406.652 344.559 407.238 344.312 407.918 344.312C408.621 344.312 409.219 344.559 409.711 345.051C410.203 345.543 410.449 346.141 410.449 346.844ZM441.796 353.172L442.253 355.176V373H437.999V353.172H441.796ZM452.765 355.352C453.163 355.75 453.468 356.219 453.679 356.758C453.913 357.273 454.077 357.824 454.171 358.41C454.288 358.973 454.359 359.547 454.382 360.133C454.405 360.719 454.417 361.293 454.417 361.855V372.297V373H450.128V362.207C450.128 361.41 450.093 360.648 450.023 359.922C449.952 359.195 449.788 358.551 449.53 357.988C449.273 357.426 448.921 356.992 448.476 356.688C448.03 356.359 447.409 356.195 446.612 356.195C446.284 356.195 445.839 356.254 445.277 356.371C444.737 356.465 444.21 356.629 443.695 356.863V354.156C444.327 353.828 445.007 353.547 445.734 353.312C446.484 353.078 447.21 352.961 447.913 352.961C448.968 352.961 449.859 353.184 450.585 353.629C451.312 354.051 452.038 354.625 452.765 355.352Z" fill="white"/>
</g>
<defs>
<filter id="filter0_d" x="0" y="165.879" width="488" height="176.121" filterUnits="userSpaceOnUse" color-interpolation-filters="sRGB">
<feFlood flood-opacity="0" result="BackgroundImageFix"/>
<feColorMatrix in="SourceAlpha" type="matrix" values="0 0 0 0 0 0 0 0 0 0 0 0 0 0 0 0 0 0 127 0" result="hardAlpha"/>
<feOffset dy="4"/>
<feGaussianBlur stdDeviation="2"/>
<feComposite in2="hardAlpha" operator="out"/>
<feColorMatrix type="matrix" values="0 0 0 0 0 0 0 0 0 0 0 0 0 0 0 0 0 0 0.25 0"/>
<feBlend mode="normal" in2="BackgroundImageFix" result="effect1_dropShadow"/>
<feBlend mode="normal" in="SourceGraphic" in2="effect1_dropShadow" result="shape"/>
</filter>
</defs>
</svg>
