<svg xmlns="http://www.w3.org/2000/svg" width="488" height="342" fill="none" viewBox="0 0 488 342"><g filter="url(#filter0_d)"><rect width="480" height="168.121" x="4" y="165.879" fill="#5B4DBD" rx="35"/><rect width="479" height="167.121" x="4.5" y="166.379" stroke="#000" rx="34.5"/></g><path fill="#fff" d="M162.062 207.938H108.344V318H83.9688V207.938H30.1562V183.562H162.062V207.938ZM313.469 239.812C313.469 245.375 312.781 250.344 311.406 254.719C310.031 259.094 308.156 262.969 305.781 266.344C303.469 269.656 300.781 272.5 297.719 274.875C294.656 277.25 291.438 279.188 288.062 280.688C284.75 282.188 281.375 283.281 277.938 283.969C274.562 284.656 271.375 285 268.375 285H213.25V260.625H268.375C271.5 260.375 274.312 259.75 276.812 258.75C279.375 257.688 281.562 256.281 283.375 254.531C285.188 252.781 286.594 250.688 287.594 248.25C288.594 245.75 289.094 242.938 289.094 239.812V228.75C288.781 225.688 288.125 222.875 287.125 220.312C286.125 217.75 284.75 215.562 283 213.75C281.312 211.938 279.25 210.531 276.812 209.531C274.375 208.469 271.562 207.938 268.375 207.938H213.438C210.188 207.938 207.719 208.781 206.031 210.469C204.344 212.156 203.5 214.594 203.5 217.781V318H179.125V217.781C179.125 211.531 180.25 206.219 182.5 201.844C184.812 197.469 187.656 193.938 191.031 191.25C194.469 188.562 198.188 186.625 202.188 185.438C206.188 184.188 209.875 183.562 213.25 183.562H268.375C273.875 183.562 278.812 184.281 283.188 185.719C287.562 187.094 291.406 188.969 294.719 191.344C298.094 193.656 300.938 196.344 303.25 199.406C305.625 202.469 307.562 205.688 309.062 209.062C310.625 212.375 311.75 215.75 312.438 219.188C313.125 222.562 313.469 225.75 313.469 228.75V239.812ZM457.844 318H346.656C344.906 318 343.281 317.688 341.781 317.062C340.281 316.438 338.969 315.594 337.844 314.531C336.781 313.406 335.938 312.094 335.312 310.594C334.688 309.094 334.375 307.469 334.375 305.719V183.562H358.75V293.625H457.844V318Z"/><path fill="#5B4DBD" d="M227.385 0L279.077 15.6913L123.385 157.473L227.385 0Z"/><path fill="#5B4DBD" d="M312.923 26.3389L365.231 42.0302L141.846 156.913L312.923 26.3389Z"/><path fill="#5B4DBD" d="M330.769 79.5772V109.839L175.248 158.314L330.769 79.5772Z"/><defs><filter id="filter0_d" width="488" height="176.121" x="0" y="165.879" color-interpolation-filters="sRGB" filterUnits="userSpaceOnUse"><feFlood flood-opacity="0" result="BackgroundImageFix"/><feColorMatrix in="SourceAlpha" result="hardAlpha" type="matrix" values="0 0 0 0 0 0 0 0 0 0 0 0 0 0 0 0 0 0 127 0"/><feOffset dy="4"/><feGaussianBlur stdDeviation="2"/><feComposite in2="hardAlpha" operator="out"/><feColorMatrix type="matrix" values="0 0 0 0 0 0 0 0 0 0 0 0 0 0 0 0 0 0 0.25 0"/><feBlend in2="BackgroundImageFix" mode="normal" result="effect1_dropShadow"/><feBlend in="SourceGraphic" in2="effect1_dropShadow" mode="normal" result="shape"/></filter></defs></svg>