<svg xmlns="http://www.w3.org/2000/svg" width="687" height="670" fill="none" viewBox="0 0 687 670"><g clip-path="url(#clip0)"><path fill="#fff" d="M782.77 134.416C788.863 191.341 836.341 239.055 881.174 271.045C896.175 281.757 912.372 292.798 921.831 310.417C933.39 331.916 931.356 357.27 923.948 376.513C910.455 411.595 880.262 433.93 845.34 434.619C815.206 435.226 782.92 420.773 752.962 422.422C702.822 425.145 669.825 471.785 648.513 521.18C633.446 556.123 618.84 596.955 585.315 605.666C561.727 611.818 533.752 599.744 510.13 581.419C498.721 572.569 487.471 561.988 474.974 558.124C467.557 555.828 460.216 556.107 453.21 557.099C389.167 566.196 346.862 631.734 281.68 636.352C237.659 639.501 189.444 613.458 149.901 576.473C110.358 539.488 78.1316 492.168 47.5789 444.716C25.8655 410.996 3.71689 374.044 0.427238 335.672C-3.09679 295.07 16.3314 260.98 43.7619 244.075C71.1924 227.17 105.704 225.209 139.798 228.851C182.438 233.387 227.974 245.97 264.821 229.827C289.933 218.836 308.005 195.631 327.542 175.404C360.188 141.593 398.182 115.197 436.31 89.4825C472.806 64.875 509.971 40.5627 551.824 27.1434C581.49 17.6203 613.014 20.8357 643.491 15.3072C663.363 11.7063 679.886 0.542722 700.763 0.0587744C726.477 -0.581021 758.21 10.2545 774.332 42.2196C789.684 72.5771 779.53 104.206 782.77 134.416Z" opacity=".1"/><path fill="url(#paint0_linear)" d="M661.345 11.1718L604.174 7.77598L571.093 5.46288V5.40546H570.683H570.223V5.47108L392.339 19.4153H377.59L375.857 79.5807L404.493 89.4729L421.845 176.009L342.885 329.29L295.173 364.724V398.51L323.809 425.71L325.541 550.158L334.222 551.799V550.478L338.583 551.299V551.791L508.046 607.633L515.169 612.366L530.069 603.27L650.104 535.312L661.345 11.1718ZM479.159 397.772L525.582 359.22L479.159 397.772ZM318.15 413.767L330.706 425.718V426.456L318.15 413.767Z"/><path fill="#535461" d="M340.977 428.236L510.063 470.069L484.951 442.181L470.721 424.955L322.561 396.247L315.865 401.988L340.977 428.236Z"/><path fill="#D6D6E3" d="M315.865 401.988L482.44 439.72L483.277 400.348L435.565 382.302L340.14 366.718H312.517L315.865 401.988Z"/><path fill="#D6D6E3" d="M436.402 178.88L606.325 189.543V158.374L594.606 88.6526L588.747 83.7311L418.823 88.6526L436.402 178.88Z"/><path fill="#D6D6E3" d="M396.223 22.2124H387.852L386.178 82.0907L413.801 91.9337L430.542 178.06L354.37 330.627L308.331 365.897V399.528L335.954 426.596L337.629 550.454L345.999 552.094L344.325 429.057L316.702 400.348L315.865 365.897L360.229 331.447L438.076 178.88L421.335 91.9337L393.712 80.4502L396.223 22.2124Z"/><path fill="#535461" d="M389.526 22.2124H381.156L379.482 82.0907L407.105 91.9337L423.846 178.06L347.673 330.627L301.635 365.897V399.528L329.258 426.596L330.932 550.454L339.303 552.094L337.629 429.057L310.006 400.348L309.169 365.897L355.207 331.447L431.379 178.88L414.638 91.9337L387.015 80.4502L389.526 22.2124Z"/><path fill="#A8A8A8" d="M389.108 75.9388L393.293 81.6806L416.731 92.3438L602.558 87.4223L584.562 82.0907L565.309 73.8882L567.82 67.3262L389.108 75.9388Z"/><path fill="#429FFD" d="M357.718 333.908L527.641 360.976L561.961 289.614L608.836 187.083L436.402 178.88L357.718 333.908Z"/><g opacity=".1"><path fill="#fff" d="M445.609 208.409L560.287 217.432L500.855 332.267L389.526 315.862L445.609 208.409Z" opacity=".1"/></g><g opacity=".1"><path fill="#fff" d="M453.52 216.751L458.584 217.153L455.964 222.214L451.05 221.492L453.52 216.751Z" opacity=".1"/></g><g opacity=".1"><path fill="#fff" d="M454.357 264.326L459.421 264.728L456.801 269.789L451.887 269.067L454.357 264.326Z" opacity=".1"/></g><g opacity=".1"><path fill="#fff" d="M481.98 222.493L487.044 222.895L484.424 227.956L479.51 227.234L481.98 222.493Z" opacity=".1"/></g><g opacity=".1"><path fill="#fff" d="M534.715 224.954L539.779 225.356L537.159 230.417L532.245 229.695L534.715 224.954Z" opacity=".1"/></g><g opacity=".1"><path fill="#fff" d="M463.564 231.516L468.629 231.918L466.009 236.979L461.095 236.257L463.564 231.516Z" opacity=".1"/></g><g opacity=".1"><path fill="#fff" d="M481.98 281.551L487.044 281.953L484.424 287.014L479.51 286.292L481.98 281.551Z" opacity=".1"/></g><g opacity=".1"><path fill="#fff" d="M436.778 252.842L441.843 253.244L439.223 258.305L434.309 257.583L436.778 252.842Z" opacity=".1"/></g><g opacity=".1"><path fill="#fff" d="M513.788 222.493L518.852 222.895L516.232 227.956L511.319 227.234L513.788 222.493Z" opacity=".1"/></g><g opacity=".1"><path fill="#fff" d="M473.609 250.381L478.673 250.783L476.053 255.844L471.14 255.122L473.609 250.381Z" opacity=".1"/></g><g opacity=".1"><path fill="#fff" d="M467.75 219.212L472.814 219.614L470.194 224.675L465.28 223.953L467.75 219.212Z" opacity=".1"/></g><g opacity=".1"><path fill="#fff" d="M493.699 247.921L498.763 248.323L496.143 253.384L491.229 252.662L493.699 247.921Z" opacity=".1"/></g><g opacity=".1"><path fill="#fff" d="M499.558 222.493L504.622 222.895L502.002 227.956L497.089 227.234L499.558 222.493Z" opacity=".1"/></g><g opacity=".1"><path fill="#fff" d="M446.823 233.976L451.887 234.378L449.267 239.439L444.354 238.718L446.823 233.976Z" opacity=".1"/></g><path fill="#D6D6E3" d="M312.517 366.718L478.255 399.528L523.908 360.385L358.137 332.677L312.517 366.718Z"/><path fill="#535461" d="M343.488 424.135V552.094L507.552 607.871L510.063 474.991L503.367 462.629L473.232 455.305L343.488 424.135Z"/><path fill="#575988" d="M364.833 348.672C368.763 348.672 371.948 346.836 371.948 344.571C371.948 342.306 368.763 340.469 364.833 340.469C360.904 340.469 357.718 342.306 357.718 344.571C357.718 346.836 360.904 348.672 364.833 348.672Z"/><path fill="#FA595F" d="M370.693 357.695C374.622 357.695 377.808 355.859 377.808 353.593C377.808 351.328 374.622 349.492 370.693 349.492C366.763 349.492 363.578 351.328 363.578 353.593C363.578 355.859 366.763 357.695 370.693 357.695Z"/><path fill="#FFD037" d="M350.603 355.234C354.533 355.234 357.718 353.398 357.718 351.133C357.718 348.868 354.533 347.032 350.603 347.032C346.674 347.032 343.488 348.868 343.488 351.133C343.488 353.398 346.674 355.234 350.603 355.234Z"/><path fill="#575988" d="M441.006 363.437C444.935 363.437 448.121 361.6 448.121 359.335C448.121 357.07 444.935 355.234 441.006 355.234C437.076 355.234 433.891 357.07 433.891 359.335C433.891 361.6 437.076 363.437 441.006 363.437Z"/><path fill="#FFD037" d="M426.776 370.819C430.705 370.819 433.891 368.983 433.891 366.718C433.891 364.452 430.705 362.616 426.776 362.616C422.846 362.616 419.661 364.452 419.661 366.718C419.661 368.983 422.846 370.819 426.776 370.819Z"/><path fill="#A8A8A8" d="M399.99 359.335C405.768 359.335 410.453 357.132 410.453 354.414C410.453 351.696 405.768 349.492 399.99 349.492C394.211 349.492 389.526 351.696 389.526 354.414C389.526 357.132 394.211 359.335 399.99 359.335Z"/><path fill="#FA595F" d="M448.539 372.459C452.469 372.459 455.654 370.623 455.654 368.358C455.654 366.093 452.469 364.257 448.539 364.257C444.61 364.257 441.424 366.093 441.424 368.358C441.424 370.623 444.61 372.459 448.539 372.459Z"/><path fill="#A8A8A8" d="M402.919 353.602H397.897L393.578 337.262C393.396 336.575 393.378 335.856 393.524 335.161C393.67 334.465 393.976 333.812 394.42 333.25C394.864 332.689 395.433 332.234 396.083 331.922C396.734 331.609 397.449 331.447 398.173 331.447C399.432 331.447 400.639 331.937 401.529 332.809C402.419 333.681 402.919 334.864 402.919 336.098V353.602Z"/><path fill="#A8A8A8" d="M475.325 372.459C481.104 372.459 485.788 370.256 485.788 367.538C485.788 364.82 481.104 362.616 475.325 362.616C469.546 362.616 464.862 364.82 464.862 367.538C464.862 370.256 469.546 372.459 475.325 372.459Z"/><path fill="#A8A8A8" d="M478.255 366.726H473.233L468.913 350.386C468.732 349.699 468.713 348.98 468.859 348.285C469.005 347.589 469.312 346.936 469.756 346.374C470.199 345.813 470.768 345.358 471.419 345.046C472.069 344.733 472.784 344.571 473.509 344.571C474.767 344.571 475.975 345.061 476.865 345.933C477.755 346.805 478.255 347.988 478.255 349.222V366.726Z"/><path fill="#535461" d="M395.386 22.2124L567.82 8.26813L563.635 69.7869L391.201 77.9894L395.386 22.2124Z"/><path fill="#D6D6E3" d="M566.983 8.26813L646.504 14.0099L635.622 535.689L513.83 612.383L505.459 606.641L505.041 470.069L478.255 440.54V399.528L525.13 359.335L604.651 186.262L593.351 87.4223H599.21L561.961 74.7084L566.983 8.26813Z"/><path fill="#535461" d="M574.517 9.08838L654.875 14.0099L643.993 535.689L513.411 611.972V470.069L486.625 440.54V399.527L533.501 359.335L613.022 186.262L598.792 87.0122L570.332 74.7084L574.517 9.08838Z"/><path fill="url(#paint1_linear)" d="M433.146 325.131C421.427 348.918 392.582 342.75 392.582 342.75C391.092 341.396 381.767 339.133 374.694 337.566C370.157 336.557 366.549 335.852 366.549 335.852L376.451 322.326L383.876 323.818L394.951 326.05C394.951 326.05 444.906 301.352 433.146 325.131Z"/><g opacity=".08"><path fill="url(#paint2_linear)" d="M433.146 325.131C421.427 348.918 392.582 342.75 392.582 342.75C391.092 341.396 381.767 339.133 374.694 337.566C370.157 336.557 366.549 335.852 366.549 335.852L376.451 322.326L383.876 323.818L394.951 326.05C394.951 326.05 444.906 301.352 433.146 325.131Z" opacity=".08"/></g><g opacity=".1"><path fill="url(#paint3_linear)" d="M383.885 323.818L374.677 337.574C370.14 336.565 366.532 335.86 366.532 335.86L376.435 322.334L383.885 323.818Z" opacity=".1"/></g><path fill="url(#paint4_linear)" d="M280.943 274.653C280.943 274.653 324.11 340.757 370.333 340.601L382.888 321.735C382.888 321.735 340.583 292.124 334.958 276.687C332.882 270.945 328.597 263.079 324.026 255.36C309.989 231.713 272.129 247.158 280.449 273.143C280.611 273.657 280.775 274.16 280.943 274.653Z"/><g opacity=".05"><path fill="url(#paint5_linear)" d="M280.943 274.653C280.943 274.653 324.11 340.757 370.333 340.601L382.888 321.735C382.888 321.735 340.583 292.124 334.958 276.687C332.882 270.945 328.597 263.079 324.026 255.36C309.989 231.713 272.129 247.158 280.449 273.143C280.611 273.657 280.775 274.16 280.943 274.653Z" opacity=".05"/></g><path fill="url(#paint6_linear)" d="M252.843 658.882L254.868 681.849C254.868 681.849 321.172 671.055 320.594 649.474C320.017 627.893 252.843 658.882 252.843 658.882Z"/><g opacity=".1"><path fill="url(#paint7_linear)" d="M252.843 658.882L254.868 681.849C254.868 681.849 321.172 671.055 320.594 649.474C320.017 627.893 252.843 658.882 252.843 658.882Z" opacity=".1"/></g><path fill="url(#paint8_linear)" d="M330.438 666.076L329.283 686C329.283 686 421.36 679.356 417.878 660.572C414.395 641.788 365.762 652.238 365.762 652.238L330.438 666.076Z"/><path fill="url(#paint9_linear)" d="M331.593 471.267C331.593 471.267 326.152 486.031 319.205 502.945C312.559 519.136 304.54 537.338 298.588 546.533C286.426 565.349 284.693 623.464 284.693 623.464C282.374 632.872 293.959 651.139 293.959 651.139C270.798 674.927 249.369 661.105 249.369 661.105C253.42 653.912 246.473 633.43 246.473 633.43C246.473 633.43 255.739 538.79 261.54 534.36C267.341 529.931 271.961 507.792 271.961 507.792L266.78 432.559L265.591 415.334L315.388 393.753L318.979 410.913L322.536 427.9L331.593 471.267Z"/><g opacity=".1"><path fill="url(#paint10_linear)" d="M331.593 471.267C331.593 471.267 326.152 486.031 319.205 502.945C312.559 519.136 304.54 537.338 298.588 546.533C286.426 565.349 284.693 623.464 284.693 623.464C282.374 632.872 293.959 651.139 293.959 651.139C270.798 674.927 249.369 661.105 249.369 661.105C253.42 653.912 246.473 633.43 246.473 633.43C246.473 633.43 255.739 538.79 261.54 534.36C267.341 529.931 271.961 507.792 271.961 507.792L266.78 432.559L265.591 415.334L315.388 393.753L318.979 410.913L322.536 427.9L331.593 471.267Z" opacity=".1"/></g><path fill="url(#paint11_linear)" d="M375.02 654.461C364.599 672.171 328.145 669.956 328.145 669.956V617.927C328.145 617.927 317.723 559.813 323.516 546.566C329.308 533.319 321.197 508.933 321.197 508.933L319.205 502.953L295.591 431.591L288.744 410.904H366.917C366.917 410.904 366.917 414.448 366.917 420.206C367.018 442.353 367.487 497.236 369.789 509.974C372.685 526.027 364.574 536.542 364.574 536.542C364.574 536.542 369.203 601.851 365.151 622.324C361.1 642.797 375.02 654.461 375.02 654.461Z"/><path fill="url(#paint12_linear)" d="M310.751 167.971C310.751 167.971 298.588 200.067 274.271 211.69C249.955 223.313 314.224 226.635 314.224 226.635C314.224 226.635 324.646 202.282 348.385 185.122L310.751 167.971Z"/><g opacity=".1"><path fill="url(#paint13_linear)" d="M366.943 420.239C357.249 422.068 340.098 425.201 322.528 427.925C313.32 429.352 304.012 430.664 295.591 431.616C282.634 433.084 271.794 433.699 266.771 432.551L265.583 415.326L315.38 393.745L318.971 410.904H366.917C366.917 410.904 366.917 414.481 366.943 420.239Z" opacity=".1"/></g><path fill="url(#paint14_linear)" d="M375.02 417.023C375.02 417.023 277.159 436.398 265.005 430.312C252.851 424.225 249.938 408.731 253.42 391.571C256.902 374.411 253.42 331.799 247.05 277.556C243.844 250.242 250.909 231.909 258.727 220.442C262.159 215.499 266.779 211.46 272.18 208.681C277.582 205.901 283.598 204.467 289.698 204.505C300.283 204.463 310.57 207.932 318.887 214.348C321.331 216.259 323.8 217.826 325.818 218.359C327.408 218.777 329.802 220.434 332.514 222.69C344.591 232.882 352.171 247.259 353.667 262.808C354.671 273.119 355.734 286.103 356.253 299.227C356.786 310.435 356.669 321.663 355.902 332.858C355.364 341.053 355.763 349.282 357.09 357.391C361.602 387.298 375.02 417.023 375.02 417.023Z"/><g opacity=".1"><path fill="url(#paint15_linear)" d="M357.099 357.432C321.582 336.253 303.217 276.999 303.217 276.999C303.217 276.482 303.217 275.973 303.158 275.473C302.363 248.298 343.195 243.065 350.126 269.436C352.378 278.024 354.311 286.735 354.713 292.756C354.932 294.971 355.453 297.148 356.262 299.227C356.795 310.435 356.677 321.663 355.91 332.858C355.369 341.067 355.768 349.31 357.099 357.432Z" opacity=".1"/></g><g opacity=".1"><path fill="url(#paint16_linear)" d="M304.665 187.066C310.441 196.425 315.011 205.85 326.738 207.45C332.496 200.29 339.188 193.903 346.644 188.453L308.976 171.293C308.976 171.293 311.186 177.15 304.665 187.066Z" opacity=".1"/></g><path fill="url(#paint17_linear)" d="M333.912 204.488C355.02 204.488 372.132 188.135 372.132 167.963C372.132 147.79 355.02 131.437 333.912 131.437C312.804 131.437 295.692 147.79 295.692 167.963C295.692 188.135 312.804 204.488 333.912 204.488Z"/><g opacity=".1"><path fill="url(#paint18_linear)" d="M371.689 179.422C373.27 179.488 374.835 179.082 376.175 178.257C378.008 176.953 378.594 174.615 379.013 172.466C380.009 167.388 380.787 162.04 379.013 157.152C377.866 153.92 375.665 151.123 374.124 148.055C370.693 141.354 370.081 133.291 365.185 127.475C362.129 123.833 351.39 127.475 346.903 125.638C337.26 121.668 333.075 113.613 322.57 113.621C318.72 113.529 314.878 113.999 311.169 115.015C306.473 116.434 302.321 119.117 298.463 122.061C291.766 127.163 285.203 134.168 285.798 142.354C286.183 147.579 289.439 152.197 291.356 157.07C294.57 165.272 293.984 174.492 291.666 182.99C290.678 186.607 289.548 190.93 292.168 193.694C293.842 195.425 296.495 195.917 298.864 195.539C301.227 195.026 303.489 194.14 305.561 192.915C309.328 190.954 313.145 188.961 316.191 186.082C318.209 184.179 319.833 181.932 321.75 179.938C325.503 176.127 329.752 172.817 334.389 170.095C338.097 167.913 341.923 169.275 345.815 170.694C354.37 173.77 362.28 179.586 371.689 179.422Z" opacity=".1"/></g><path fill="url(#paint19_linear)" d="M371.111 178.864C372.693 178.93 374.257 178.524 375.598 177.699C377.431 176.395 378.017 174.057 378.435 171.908C379.431 166.831 380.21 161.483 378.435 156.594C377.289 153.362 375.087 150.565 373.547 147.497C370.115 140.796 369.504 132.733 364.607 126.917C361.552 123.275 351.39 127.475 346.903 125.63C337.26 121.66 332.497 113.055 321.992 113.063C318.143 112.971 314.3 113.441 310.592 114.458C305.896 115.877 301.744 118.559 297.885 121.504C291.188 126.606 284.626 133.611 285.22 141.797C285.605 147.022 288.861 151.64 290.778 156.512C293.993 164.714 293.407 173.934 291.088 182.432C290.1 186.049 288.97 190.372 291.59 193.136C293.264 194.867 295.918 195.359 298.287 194.982C300.65 194.469 302.911 193.582 304.983 192.357C308.75 190.396 312.567 188.403 315.614 185.524C317.631 183.621 319.255 181.374 321.172 179.381C324.925 175.569 329.175 172.259 333.812 169.538C337.52 167.356 341.345 168.717 345.238 170.136C353.792 173.212 361.703 179.028 371.111 178.864Z"/><g opacity=".05"><path fill="url(#paint20_linear)" d="M357.099 357.432C355.771 349.323 355.372 341.094 355.91 332.899C356.677 321.704 356.795 310.476 356.262 299.268C355.743 286.144 354.688 273.16 353.675 262.849C352.173 247.284 344.573 232.896 332.472 222.706C329.785 220.45 327.391 218.785 325.776 218.375C323.758 217.85 321.289 216.275 318.845 214.364C310.625 207.942 321.071 220.45 323.758 222.706C335.859 232.896 343.459 247.284 344.961 262.849C345.966 273.16 347.029 286.144 347.548 299.268C348.081 310.476 347.963 321.704 347.196 332.899C346.658 341.094 347.057 349.323 348.385 357.432C352.888 387.314 366.306 417.023 366.306 417.023C366.306 417.023 300.798 429.992 270.312 431.37C294.202 433.01 374.987 417.023 374.987 417.023C374.987 417.023 361.602 387.298 357.099 357.432Z" opacity=".05"/></g><path fill="url(#paint21_linear)" d="M436.979 362.789C419.024 382.712 392.975 369.433 392.975 369.433C391.912 367.743 383.558 363.19 377.188 359.877C373.095 357.752 369.814 356.144 369.814 356.144L383.131 345.629L389.87 348.959L399.914 353.93C399.914 353.93 454.951 342.865 436.979 362.789Z"/><g opacity=".1"><path fill="url(#paint22_linear)" d="M389.87 348.959L377.188 359.877C373.095 357.752 369.814 356.144 369.814 356.144L383.131 345.629L389.87 348.959Z" opacity=".1"/></g><path fill="url(#paint23_linear)" d="M304.381 275.342C304.381 275.342 327.542 350.058 372.132 361.681L389.501 346.736C389.501 346.736 357.015 307.413 355.877 291.099C355.466 285.07 353.541 276.334 351.289 267.779C344.359 241.416 303.527 246.641 304.322 273.816C304.339 274.319 304.358 274.828 304.381 275.342Z"/><path fill="url(#paint24_linear)" d="M259.506 348.122C259.506 348.122 274.573 336.5 288.46 345.358C302.346 354.217 322.62 353.11 325.516 353.659" opacity=".05"/><path fill="#F7C4A7" d="M428.81 323.917C417.635 347.114 390.204 341.142 390.204 341.142C388.781 339.822 379.909 337.615 373.187 336.089C368.868 335.105 365.436 334.449 365.436 334.449L374.861 321.251L381.926 322.711L392.464 324.885C392.464 324.885 439.984 300.712 428.81 323.917Z"/><path fill="#000" d="M428.81 323.917C417.635 347.114 390.204 341.142 390.204 341.142C388.781 339.822 379.909 337.615 373.187 336.089C368.868 335.105 365.436 334.449 365.436 334.449L374.861 321.251L381.926 322.711L392.464 324.885C392.464 324.885 439.984 300.712 428.81 323.917Z" opacity=".08"/><path fill="#000" d="M381.926 322.629L373.187 336.048C368.868 335.064 365.436 334.408 365.436 334.408L374.861 321.21L381.926 322.629Z" opacity=".1"/><path fill="#575988" d="M283.965 274.661C283.965 274.661 325.048 339.165 369.027 339.001L380.988 320.628C380.988 320.628 340.734 291.738 335.377 276.67C333.402 271.109 329.325 263.399 324.981 255.885C311.588 232.82 275.594 247.888 283.504 273.242C283.655 273.707 283.808 274.18 283.965 274.661Z"/><path fill="#000" d="M283.965 274.661C283.965 274.661 325.048 339.165 369.027 339.001L380.988 320.628C380.988 320.628 340.734 291.738 335.377 276.67C333.402 271.109 329.325 263.399 324.981 255.885C311.588 232.82 275.594 247.888 283.504 273.242C283.655 273.707 283.808 274.18 283.965 274.661Z" opacity=".05"/><path fill="#535461" d="M257.221 649.556L259.146 671.965C259.146 671.965 322.243 661.433 321.691 640.378C321.138 619.322 257.221 649.556 257.221 649.556Z"/><path fill="#000" d="M257.221 649.556L259.146 671.965C259.146 671.965 322.243 661.433 321.691 640.378C321.138 619.322 257.221 649.556 257.221 649.556Z" opacity=".1"/><path fill="#535461" d="M331.066 656.578L329.961 676.026C329.961 676.026 417.585 669.546 414.278 651.188C410.972 632.831 364.682 643.084 364.682 643.084L331.066 656.578Z"/><path fill="#6A5C99" d="M332.163 466.493C332.163 466.493 326.981 480.88 320.368 497.4C314.04 513.198 306.406 530.956 300.748 539.93C289.213 558.295 287.539 614.991 287.539 614.991C285.337 624.17 296.353 641.994 296.353 641.994C274.313 665.215 253.922 651.714 253.922 651.714C257.781 644.692 251.169 624.711 251.169 624.711C251.169 624.711 259.983 532.367 265.499 528.053C271.015 523.738 275.41 502.133 275.41 502.133L270.48 428.729L269.349 411.954L316.744 390.89L320.184 407.632L323.532 424.209L332.163 466.493Z"/><path fill="#000" d="M332.163 466.493C332.163 466.493 326.981 480.88 320.368 497.4C314.04 513.198 306.406 530.956 300.748 539.93C289.213 558.295 287.539 614.991 287.539 614.991C285.337 624.17 296.353 641.994 296.353 641.994C274.313 665.215 253.922 651.714 253.922 651.714C257.781 644.692 251.169 624.711 251.169 624.711C251.169 624.711 259.983 532.367 265.499 528.053C271.015 523.738 275.41 502.133 275.41 502.133L270.48 428.729L269.349 411.954L316.744 390.89L320.184 407.632L323.532 424.209L332.163 466.493Z" opacity=".1"/><path fill="#6A5C99" d="M373.497 645.234C363.578 662.516 328.856 660.351 328.856 660.351V609.585C328.856 609.585 318.937 552.882 324.445 539.922C329.953 526.962 322.243 503.199 322.243 503.199L320.368 497.392L297.893 427.802L291.381 407.623H365.779C365.779 407.623 365.779 411.077 365.779 416.704C365.871 438.301 366.323 491.863 368.516 504.29C371.27 519.949 363.552 530.21 363.552 530.21C363.552 530.21 367.964 593.927 364.105 613.875C360.246 633.824 373.497 645.234 373.497 645.234Z"/><path fill="#F7C4A7" d="M312.324 170.571C312.324 170.571 300.748 201.888 277.603 213.224C254.458 224.56 315.631 227.808 315.631 227.808C315.631 227.808 325.55 204.021 348.142 187.304L312.324 170.571Z"/><path fill="#000" d="M365.804 416.712C356.58 418.467 340.274 421.551 323.532 424.209C314.777 425.603 305.912 426.883 297.893 427.81C285.563 429.237 275.242 429.844 270.463 428.72L269.333 411.946L316.727 390.882L320.184 407.632H365.812C365.812 407.632 365.779 411.085 365.804 416.712Z" opacity=".1"/><path fill="#575988" d="M373.497 413.546C373.497 413.546 280.365 432.411 268.797 426.506C257.229 420.6 254.467 405.442 257.773 388.708C261.079 371.975 257.773 330.389 251.713 277.466C248.657 250.816 255.387 232.935 262.82 221.738C266.022 216.945 270.393 213.009 275.538 210.288C280.683 207.567 286.439 206.146 292.285 206.154C302.394 206.119 312.205 209.506 320.059 215.742C322.386 217.604 324.738 219.138 326.655 219.655C328.17 220.057 330.447 221.681 333 223.879C344.576 233.936 351.795 247.947 353.181 263.046C354.144 273.102 355.148 285.775 355.642 298.588C356.152 309.522 356.043 320.475 355.316 331.398C354.804 339.392 355.183 347.418 356.446 355.332C360.723 384.583 373.497 413.546 373.497 413.546Z"/><path fill="#000" d="M356.437 355.431C322.637 334.769 305.159 276.949 305.159 276.949C305.159 276.449 305.159 275.949 305.1 275.465C304.347 248.954 343.203 243.844 349.799 269.575C351.942 277.958 353.775 286.448 354.161 292.329C354.368 294.488 354.863 296.612 355.634 298.645C356.144 309.579 356.035 320.533 355.307 331.455C354.792 339.463 355.171 347.503 356.437 355.431Z" opacity=".1"/><path fill="#000" d="M306.54 189.199C312.031 198.328 316.384 207.532 327.55 209.082C333.009 202.116 339.378 195.884 346.493 190.544L310.675 173.803C310.675 173.803 312.743 179.528 306.54 189.199Z" opacity=".1"/><path fill="#F7C4A7" d="M334.372 206.211C354.459 206.211 370.743 190.254 370.743 170.571C370.743 150.888 354.459 134.931 334.372 134.931C314.286 134.931 298.002 150.888 298.002 170.571C298.002 190.254 314.286 206.211 334.372 206.211Z"/><path fill="#000" d="M370.324 181.743C371.834 181.802 373.326 181.401 374.593 180.595C376.334 179.323 376.895 177.035 377.289 174.943C378.234 170.021 378.963 164.772 377.289 159.998C376.2 156.84 374.133 154.117 372.634 151.123C369.362 144.561 368.784 136.719 364.13 131.043C361.217 127.491 351.005 131.043 346.727 129.247C337.52 125.375 333.569 117.517 323.574 117.525C319.897 117.433 316.228 117.892 312.693 118.887C308.223 120.265 304.272 122.906 300.605 125.761C294.21 130.74 287.982 137.572 288.552 145.562C288.92 150.664 292.017 155.126 293.842 159.916C296.906 167.938 296.353 176.92 294.135 185.204C293.197 188.731 292.118 192.947 294.612 195.654C296.169 197.336 298.73 197.828 301.016 197.451C303.28 196.951 305.444 196.087 307.419 194.891C311.002 192.98 314.635 191.036 317.531 188.231C319.448 186.369 320.996 184.179 322.821 182.235C326.379 178.526 330.424 175.296 334.85 172.63C338.382 170.505 342.006 171.81 345.731 173.212C353.842 176.231 361.368 181.907 370.324 181.743Z" opacity=".1"/><path fill="#632652" d="M369.772 181.201C371.28 181.266 372.771 180.87 374.041 180.07C375.782 178.798 376.343 176.51 376.736 174.418C377.682 169.497 378.41 164.247 376.736 159.473C375.648 156.315 373.58 153.592 372.082 150.598C368.809 144.036 368.232 136.194 363.578 130.518C360.665 126.967 351.022 131.068 346.727 129.263C337.52 125.392 333.016 116.959 323.022 116.959C319.345 116.867 315.675 117.326 312.14 118.321C307.67 119.699 303.719 122.34 300.053 125.195C293.658 130.174 287.43 137.006 287.999 144.996C288.368 150.098 291.465 154.56 293.289 159.35C296.353 167.372 295.801 176.354 293.582 184.638C292.645 188.165 291.565 192.382 294.06 195.088C295.617 196.77 298.178 197.262 300.463 196.885C302.728 196.386 304.892 195.521 306.867 194.325C310.449 192.414 314.082 190.47 316.978 187.665C318.895 185.803 320.444 183.613 322.269 181.669C325.865 177.964 329.95 174.745 334.414 172.097C337.947 169.972 341.571 171.276 345.296 172.679C353.29 175.673 360.815 181.366 369.772 181.201Z"/><path fill="#000" d="M356.437 355.431C355.187 347.523 354.82 339.506 355.341 331.521C356.068 320.598 356.177 309.645 355.667 298.711C355.173 285.898 354.169 273.234 353.206 263.169C351.821 248.07 344.601 234.059 333.025 224.002C330.472 221.796 328.195 220.18 326.68 219.778C324.763 219.261 322.411 217.727 320.084 215.865C312.257 209.599 322.202 221.804 324.763 224.002C336.34 234.059 343.559 248.07 344.945 263.169C345.907 273.225 346.912 285.898 347.405 298.711C347.915 309.645 347.806 320.598 347.079 331.521C346.567 339.515 346.946 347.541 348.209 355.456C352.495 384.607 365.268 413.595 365.268 413.595C365.268 413.595 302.924 426.243 273.92 427.597C296.654 429.237 373.53 413.595 373.53 413.595C373.53 413.595 360.723 384.583 356.437 355.431Z" opacity=".05"/><path fill="#F7C4A7" d="M432.459 360.656C415.375 380.096 390.606 367.136 390.606 367.136C389.602 365.495 381.65 361.041 375.539 357.818C371.647 355.743 368.525 354.176 368.525 354.176L381.198 343.915L387.61 347.196L397.194 352.027C397.194 352.027 449.544 341.216 432.459 360.656Z"/><path fill="#000" d="M387.626 347.163L375.556 357.826C371.664 355.751 368.541 354.184 368.541 354.184L381.214 343.923L387.626 347.163Z" opacity=".1"/><path fill="#575988" d="M306.264 275.333C306.264 275.333 328.304 348.237 370.718 359.573L387.25 344.989C387.25 344.989 356.278 306.626 355.249 290.705C354.855 284.824 353.03 276.326 350.879 267.951C344.283 242.228 305.427 247.33 306.189 273.841C306.216 274.333 306.242 274.83 306.264 275.333Z"/><path fill="#000" d="M263.557 346.343C263.557 346.343 277.888 334.999 291.113 343.644C304.339 352.289 323.625 351.207 326.378 351.748" opacity=".05"/></g><defs><linearGradient id="paint0_linear" x1="478.255" x2="478.255" y1="612.391" y2="5.405" gradientUnits="userSpaceOnUse"><stop stop-color="gray" stop-opacity=".25"/><stop offset=".54" stop-color="gray" stop-opacity=".12"/><stop offset="1" stop-color="gray" stop-opacity=".1"/></linearGradient><linearGradient id="paint1_linear" x1="36150.5" x2="36150.5" y1="13234.3" y2="12231.9" gradientUnits="userSpaceOnUse"><stop stop-color="gray" stop-opacity=".25"/><stop offset=".54" stop-color="gray" stop-opacity=".12"/><stop offset="1" stop-color="gray" stop-opacity=".1"/></linearGradient><linearGradient id="paint2_linear" x1="36150.5" x2="36150.5" y1="13234.3" y2="12231.9" gradientUnits="userSpaceOnUse"><stop stop-color="gray" stop-opacity=".25"/><stop offset=".54" stop-color="gray" stop-opacity=".12"/><stop offset="1" stop-color="gray" stop-opacity=".1"/></linearGradient><linearGradient id="paint3_linear" x1="8916.85" x2="8916.85" y1="7079.41" y2="6796.25" gradientUnits="userSpaceOnUse"><stop stop-color="gray" stop-opacity=".25"/><stop offset=".54" stop-color="gray" stop-opacity=".12"/><stop offset="1" stop-color="gray" stop-opacity=".1"/></linearGradient><linearGradient id="paint4_linear" x1="45875.7" x2="45875.7" y1="43577" y2="32129.6" gradientUnits="userSpaceOnUse"><stop stop-color="gray" stop-opacity=".25"/><stop offset=".54" stop-color="gray" stop-opacity=".12"/><stop offset="1" stop-color="gray" stop-opacity=".1"/></linearGradient><linearGradient id="paint5_linear" x1="45875.7" x2="45875.7" y1="43577" y2="32129.6" gradientUnits="userSpaceOnUse"><stop stop-color="gray" stop-opacity=".25"/><stop offset=".54" stop-color="gray" stop-opacity=".12"/><stop offset="1" stop-color="gray" stop-opacity=".1"/></linearGradient><linearGradient id="paint6_linear" x1="26475.6" x2="26475.6" y1="35180.1" y2="33227.7" gradientUnits="userSpaceOnUse"><stop stop-color="gray" stop-opacity=".25"/><stop offset=".54" stop-color="gray" stop-opacity=".12"/><stop offset="1" stop-color="gray" stop-opacity=".1"/></linearGradient><linearGradient id="paint7_linear" x1="26475.6" x2="26475.6" y1="35180.1" y2="33227.7" gradientUnits="userSpaceOnUse"><stop stop-color="gray" stop-opacity=".25"/><stop offset=".54" stop-color="gray" stop-opacity=".12"/><stop offset="1" stop-color="gray" stop-opacity=".1"/></linearGradient><linearGradient id="paint8_linear" x1="43862.3" x2="43862.3" y1="32476.5" y2="30836.7" gradientUnits="userSpaceOnUse"><stop stop-color="gray" stop-opacity=".25"/><stop offset=".54" stop-color="gray" stop-opacity=".12"/><stop offset="1" stop-color="gray" stop-opacity=".1"/></linearGradient><linearGradient id="paint9_linear" x1="33425.7" x2="33425.7" y1="229051" y2="139295" gradientUnits="userSpaceOnUse"><stop stop-color="gray" stop-opacity=".25"/><stop offset=".54" stop-color="gray" stop-opacity=".12"/><stop offset="1" stop-color="gray" stop-opacity=".1"/></linearGradient><linearGradient id="paint10_linear" x1="33425.7" x2="33425.7" y1="229051" y2="139295" gradientUnits="userSpaceOnUse"><stop stop-color="gray" stop-opacity=".25"/><stop offset=".54" stop-color="gray" stop-opacity=".12"/><stop offset="1" stop-color="gray" stop-opacity=".1"/></linearGradient><linearGradient id="paint11_linear" x1="38334.7" x2="38334.7" y1="220346" y2="138486" gradientUnits="userSpaceOnUse"><stop stop-color="gray" stop-opacity=".25"/><stop offset=".54" stop-color="gray" stop-opacity=".12"/><stop offset="1" stop-color="gray" stop-opacity=".1"/></linearGradient><linearGradient id="paint12_linear" x1="33158.1" x2="33158.1" y1="18244.2" y2="14048.5" gradientUnits="userSpaceOnUse"><stop stop-color="gray" stop-opacity=".25"/><stop offset=".54" stop-color="gray" stop-opacity=".12"/><stop offset="1" stop-color="gray" stop-opacity=".1"/></linearGradient><linearGradient id="paint13_linear" x1="43070.8" x2="43070.8" y1="22455.6" y2="20564.2" gradientUnits="userSpaceOnUse"><stop stop-color="gray" stop-opacity=".25"/><stop offset=".54" stop-color="gray" stop-opacity=".12"/><stop offset="1" stop-color="gray" stop-opacity=".1"/></linearGradient><linearGradient id="paint14_linear" x1="53759.4" x2="53759.4" y1="126838" y2="64020.7" gradientUnits="userSpaceOnUse"><stop stop-color="gray" stop-opacity=".25"/><stop offset=".54" stop-color="gray" stop-opacity=".12"/><stop offset="1" stop-color="gray" stop-opacity=".1"/></linearGradient><linearGradient id="paint15_linear" x1="23981.4" x2="23981.4" y1="49479.4" y2="35967.9" gradientUnits="userSpaceOnUse"><stop stop-color="gray" stop-opacity=".25"/><stop offset=".54" stop-color="gray" stop-opacity=".12"/><stop offset="1" stop-color="gray" stop-opacity=".1"/></linearGradient><linearGradient id="paint16_linear" x1="18504.1" x2="18504.1" y1="10466.2" y2="8872.74" gradientUnits="userSpaceOnUse"><stop stop-color="gray" stop-opacity=".25"/><stop offset=".54" stop-color="gray" stop-opacity=".12"/><stop offset="1" stop-color="gray" stop-opacity=".1"/></linearGradient><linearGradient id="paint17_linear" x1="30788.5" x2="30788.5" y1="18343.9" y2="11837.2" gradientUnits="userSpaceOnUse"><stop stop-color="gray" stop-opacity=".25"/><stop offset=".54" stop-color="gray" stop-opacity=".12"/><stop offset="1" stop-color="gray" stop-opacity=".1"/></linearGradient><linearGradient id="paint18_linear" x1="41994" x2="41994" y1="22295.6" y2="14089.8" gradientUnits="userSpaceOnUse"><stop stop-color="gray" stop-opacity=".25"/><stop offset=".54" stop-color="gray" stop-opacity=".12"/><stop offset="1" stop-color="gray" stop-opacity=".1"/></linearGradient><linearGradient id="paint19_linear" x1="41927.4" x2="41927.4" y1="22240" y2="14034.3" gradientUnits="userSpaceOnUse"><stop stop-color="gray" stop-opacity=".25"/><stop offset=".54" stop-color="gray" stop-opacity=".12"/><stop offset="1" stop-color="gray" stop-opacity=".1"/></linearGradient><linearGradient id="paint20_linear" x1="45279.3" x2="45279.3" y1="122354" y2="63904" gradientUnits="userSpaceOnUse"><stop stop-color="gray" stop-opacity=".25"/><stop offset=".54" stop-color="gray" stop-opacity=".12"/><stop offset="1" stop-color="gray" stop-opacity=".1"/></linearGradient><linearGradient id="paint21_linear" x1="37777.3" x2="37777.3" y1="14063.5" y2="13098.3" gradientUnits="userSpaceOnUse"><stop stop-color="gray" stop-opacity=".25"/><stop offset=".54" stop-color="gray" stop-opacity=".12"/><stop offset="1" stop-color="gray" stop-opacity=".1"/></linearGradient><linearGradient id="paint22_linear" x1="10363.1" x2="10363.1" y1="7050.19" y2="6802.71" gradientUnits="userSpaceOnUse"><stop stop-color="gray" stop-opacity=".25"/><stop offset=".54" stop-color="gray" stop-opacity=".12"/><stop offset="1" stop-color="gray" stop-opacity=".1"/></linearGradient><linearGradient id="paint23_linear" x1="39400.1" x2="39400.1" y1="52813.6" y2="37744.1" gradientUnits="userSpaceOnUse"><stop stop-color="gray" stop-opacity=".25"/><stop offset=".54" stop-color="gray" stop-opacity=".12"/><stop offset="1" stop-color="gray" stop-opacity=".1"/></linearGradient><linearGradient id="paint24_linear" x1="26263.7" x2="26263.7" y1="5726.6" y2="5561.8" gradientUnits="userSpaceOnUse"><stop stop-color="gray" stop-opacity=".25"/><stop offset=".54" stop-color="gray" stop-opacity=".12"/><stop offset="1" stop-color="gray" stop-opacity=".1"/></linearGradient><clipPath id="clip0"><rect width="930" height="686" fill="#fff"/></clipPath></defs></svg>