<svg width="75" height="75" viewBox="0 0 75 75" fill="none" xmlns="http://www.w3.org/2000/svg">
<path fill-rule="evenodd" clip-rule="evenodd" d="M51 27.375C51 30.9554 49.5777 34.3892 47.0459 36.9209C44.5142 39.4527 41.0804 40.875 37.5 40.875C33.9196 40.875 30.4858 39.4527 27.9541 36.9209C25.4223 34.3892 24 30.9554 24 27.375C24 23.7946 25.4223 20.3608 27.9541 17.8291C30.4858 15.2973 33.9196 13.875 37.5 13.875C41.0804 13.875 44.5142 15.2973 47.0459 17.8291C49.5777 20.3608 51 23.7946 51 27.375ZM44.25 27.375C44.25 29.1652 43.5388 30.8821 42.273 32.148C41.0071 33.4138 39.2902 34.125 37.5 34.125C35.7098 34.125 33.9929 33.4138 32.727 32.148C31.4612 30.8821 30.75 29.1652 30.75 27.375C30.75 25.5848 31.4612 23.8679 32.727 22.602C33.9929 21.3362 35.7098 20.625 37.5 20.625C39.2902 20.625 41.0071 21.3362 42.273 22.602C43.5388 23.8679 44.25 25.5848 44.25 27.375Z" fill="white"/>
<path fill-rule="evenodd" clip-rule="evenodd" d="M37.5 0.375C16.9969 0.375 0.375 16.9969 0.375 37.5C0.375 58.0031 16.9969 74.625 37.5 74.625C58.0031 74.625 74.625 58.0031 74.625 37.5C74.625 16.9969 58.0031 0.375 37.5 0.375ZM7.125 37.5C7.125 44.5537 9.53137 51.0472 13.5645 56.2042C16.3969 52.4847 20.0509 49.4703 24.2411 47.3965C28.4313 45.3228 33.0441 44.2459 37.7194 44.25C42.3341 44.2456 46.889 45.2946 51.0369 47.3171C55.1848 49.3396 58.8164 52.2822 61.6549 55.9207C64.5791 52.0854 66.5481 47.6089 67.3988 42.8615C68.2495 38.1141 67.9575 33.2324 66.5469 28.6203C65.1364 24.0082 62.6479 19.7983 59.2873 16.3389C55.9267 12.8795 51.7906 10.27 47.2213 8.72647C42.652 7.18291 37.7808 6.7496 33.0108 7.46241C28.2408 8.17521 23.709 10.0136 19.7906 12.8256C15.8721 15.6375 12.6796 19.3421 10.4771 23.6328C8.27468 27.9235 7.12561 32.677 7.125 37.5ZM37.5 67.875C30.5271 67.8855 23.7646 65.4867 18.357 61.0845C20.5336 57.9685 23.4308 55.4243 26.8019 53.6686C30.173 51.9128 33.9184 50.9973 37.7194 51C41.4729 50.997 45.173 51.8896 48.5124 53.6035C51.8517 55.3175 54.734 57.8035 56.9197 60.855C51.4701 65.4001 44.5962 67.8849 37.5 67.875Z" fill="white"/>
</svg>
